<?xml version="1.0" encoding="UTF-8"?>
<svg xmlns="http://www.w3.org/2000/svg" xmlns:xlink="http://www.w3.org/1999/xlink" width="24px" height="24px" viewBox="0 0 24 24" version="1.1">
<defs>
<clipPath id="clip1">
  <path d="M 4.589844 6.445312 L 12.351562 6.445312 L 12.351562 12.78125 L 4.589844 12.78125 Z M 4.589844 6.445312 "/>
</clipPath>
<clipPath id="clip2">
  <path d="M 11.648438 6.445312 L 19.421875 6.445312 L 19.421875 12.78125 L 11.648438 12.78125 Z M 11.648438 6.445312 "/>
</clipPath>
</defs>
<g id="surface1">
<path style=" stroke:none;fill-rule:nonzero;fill:rgb(0.784314%,18.039216%,26.274511%);fill-opacity:1;" d="M 9.941406 9.167969 C 9.941406 9.195312 9.9375 9.21875 9.933594 9.242188 C 9.929688 9.265625 9.921875 9.289062 9.910156 9.3125 C 9.902344 9.335938 9.890625 9.359375 9.875 9.378906 C 9.863281 9.398438 9.847656 9.417969 9.828125 9.4375 C 9.8125 9.453125 9.792969 9.46875 9.773438 9.484375 C 9.75 9.496094 9.730469 9.507812 9.707031 9.519531 C 9.683594 9.527344 9.660156 9.535156 9.636719 9.539062 C 9.609375 9.542969 9.585938 9.546875 9.5625 9.546875 C 9.535156 9.546875 9.511719 9.542969 9.488281 9.539062 C 9.464844 9.535156 9.441406 9.527344 9.417969 9.519531 C 9.394531 9.507812 9.371094 9.496094 9.351562 9.484375 C 9.332031 9.46875 9.3125 9.453125 9.292969 9.4375 C 9.277344 9.417969 9.261719 9.398438 9.246094 9.378906 C 9.234375 9.359375 9.222656 9.335938 9.210938 9.3125 C 9.203125 9.289062 9.195312 9.265625 9.191406 9.242188 C 9.183594 9.21875 9.183594 9.195312 9.183594 9.167969 C 9.183594 9.144531 9.183594 9.121094 9.191406 9.09375 C 9.195312 9.070312 9.203125 9.046875 9.210938 9.023438 C 9.222656 9 9.234375 8.980469 9.246094 8.960938 C 9.261719 8.9375 9.277344 8.917969 9.292969 8.902344 C 9.3125 8.882812 9.332031 8.867188 9.351562 8.855469 C 9.371094 8.839844 9.394531 8.828125 9.417969 8.820312 C 9.441406 8.808594 9.464844 8.804688 9.488281 8.796875 C 9.511719 8.792969 9.535156 8.789062 9.5625 8.789062 C 9.585938 8.789062 9.609375 8.792969 9.636719 8.796875 C 9.660156 8.804688 9.683594 8.808594 9.707031 8.820312 C 9.730469 8.828125 9.75 8.839844 9.773438 8.855469 C 9.792969 8.867188 9.8125 8.882812 9.828125 8.902344 C 9.847656 8.917969 9.863281 8.9375 9.875 8.960938 C 9.890625 8.980469 9.902344 9 9.910156 9.023438 C 9.921875 9.046875 9.929688 9.070312 9.933594 9.09375 C 9.9375 9.121094 9.941406 9.144531 9.941406 9.167969 Z M 9.941406 9.167969 "/>
<path style=" stroke:none;fill-rule:nonzero;fill:rgb(0.784314%,18.039216%,26.274511%);fill-opacity:1;" d="M 8.363281 8.789062 C 8.574219 8.789062 8.742188 8.960938 8.742188 9.167969 C 8.742188 9.378906 8.574219 9.546875 8.363281 9.546875 C 8.15625 9.546875 7.984375 9.378906 7.984375 9.167969 C 7.984375 8.960938 8.15625 8.789062 8.363281 8.789062 Z M 8.363281 8.789062 "/>
<path style=" stroke:none;fill-rule:nonzero;fill:rgb(0.784314%,18.039216%,26.274511%);fill-opacity:1;" d="M 7.546875 9.167969 C 7.546875 9.195312 7.542969 9.21875 7.539062 9.242188 C 7.535156 9.265625 7.527344 9.289062 7.515625 9.3125 C 7.507812 9.335938 7.496094 9.359375 7.480469 9.378906 C 7.46875 9.398438 7.453125 9.417969 7.433594 9.4375 C 7.417969 9.453125 7.398438 9.46875 7.378906 9.484375 C 7.355469 9.496094 7.335938 9.507812 7.3125 9.519531 C 7.289062 9.527344 7.265625 9.535156 7.242188 9.539062 C 7.21875 9.542969 7.191406 9.546875 7.167969 9.546875 C 7.144531 9.546875 7.117188 9.542969 7.09375 9.539062 C 7.070312 9.535156 7.046875 9.527344 7.023438 9.519531 C 7 9.507812 6.976562 9.496094 6.957031 9.484375 C 6.9375 9.46875 6.917969 9.453125 6.898438 9.4375 C 6.882812 9.417969 6.867188 9.398438 6.851562 9.378906 C 6.839844 9.359375 6.828125 9.335938 6.816406 9.3125 C 6.808594 9.289062 6.800781 9.265625 6.796875 9.242188 C 6.792969 9.21875 6.789062 9.195312 6.789062 9.167969 C 6.789062 9.144531 6.792969 9.121094 6.796875 9.09375 C 6.800781 9.070312 6.808594 9.046875 6.816406 9.023438 C 6.828125 9 6.839844 8.980469 6.851562 8.960938 C 6.867188 8.9375 6.882812 8.917969 6.898438 8.902344 C 6.917969 8.882812 6.9375 8.867188 6.957031 8.855469 C 6.976562 8.839844 7 8.828125 7.023438 8.820312 C 7.046875 8.808594 7.070312 8.804688 7.09375 8.796875 C 7.117188 8.792969 7.144531 8.789062 7.167969 8.789062 C 7.191406 8.789062 7.21875 8.792969 7.242188 8.796875 C 7.265625 8.804688 7.289062 8.808594 7.3125 8.820312 C 7.335938 8.828125 7.355469 8.839844 7.378906 8.855469 C 7.398438 8.867188 7.417969 8.882812 7.433594 8.902344 C 7.453125 8.917969 7.46875 8.9375 7.480469 8.960938 C 7.496094 8.980469 7.507812 9 7.515625 9.023438 C 7.527344 9.046875 7.535156 9.070312 7.539062 9.09375 C 7.542969 9.121094 7.546875 9.144531 7.546875 9.167969 Z M 7.546875 9.167969 "/>
<path style=" stroke:none;fill-rule:nonzero;fill:rgb(98.823529%,3.921569%,47.843137%);fill-opacity:1;" d="M 16.839844 8.789062 C 17.050781 8.789062 17.21875 8.960938 17.21875 9.167969 C 17.21875 9.378906 17.050781 9.546875 16.839844 9.546875 C 16.632812 9.546875 16.460938 9.378906 16.460938 9.167969 C 16.460938 8.960938 16.632812 8.789062 16.839844 8.789062 Z M 16.839844 8.789062 "/>
<path style=" stroke:none;fill-rule:nonzero;fill:rgb(98.823529%,3.921569%,47.843137%);fill-opacity:1;" d="M 15.644531 8.789062 C 15.851562 8.789062 16.023438 8.960938 16.023438 9.167969 C 16.023438 9.378906 15.851562 9.546875 15.644531 9.546875 C 15.433594 9.546875 15.265625 9.378906 15.265625 9.167969 C 15.265625 8.960938 15.433594 8.789062 15.644531 8.789062 Z M 15.644531 8.789062 "/>
<path style=" stroke:none;fill-rule:nonzero;fill:rgb(98.823529%,3.921569%,47.843137%);fill-opacity:1;" d="M 14.445312 8.789062 C 14.65625 8.789062 14.824219 8.960938 14.824219 9.167969 C 14.824219 9.378906 14.65625 9.546875 14.445312 9.546875 C 14.238281 9.546875 14.070312 9.378906 14.070312 9.167969 C 14.070312 8.960938 14.238281 8.789062 14.445312 8.789062 Z M 14.445312 8.789062 "/>
<g clip-path="url(#clip1)" clip-rule="nonzero">
<path style=" stroke:none;fill-rule:nonzero;fill:rgb(98.823529%,3.921569%,47.843137%);fill-opacity:1;" d="M 12.003906 8.019531 C 11.816406 8.019531 11.664062 8.171875 11.664062 8.359375 L 11.664062 10.398438 C 11.664062 10.828125 11.3125 11.175781 10.882812 11.175781 L 8.003906 11.175781 L 7.453125 11.769531 L 6.898438 11.175781 L 6.050781 11.175781 C 5.621094 11.175781 5.269531 10.828125 5.269531 10.398438 L 5.269531 7.910156 C 5.269531 7.480469 5.621094 7.132812 6.050781 7.132812 L 10.96875 7.132812 C 11.058594 6.882812 11.191406 6.652344 11.355469 6.453125 L 6.050781 6.453125 C 5.242188 6.453125 4.589844 7.105469 4.589844 7.910156 L 4.589844 10.398438 C 4.589844 11.203125 5.242188 11.855469 6.050781 11.855469 L 6.601562 11.855469 L 7.453125 12.769531 L 8.300781 11.855469 L 10.882812 11.855469 C 11.6875 11.855469 12.34375 11.203125 12.34375 10.398438 L 12.34375 8.359375 C 12.34375 8.171875 12.191406 8.019531 12.003906 8.019531 Z M 12.003906 8.019531 "/>
</g>
<g clip-path="url(#clip2)" clip-rule="nonzero">
<path style=" stroke:none;fill-rule:nonzero;fill:rgb(0.784314%,18.039216%,26.274511%);fill-opacity:1;" d="M 17.957031 6.453125 L 13.125 6.453125 C 12.320312 6.453125 11.664062 7.105469 11.664062 7.910156 L 11.664062 9.074219 C 11.664062 9.261719 11.816406 9.414062 12.003906 9.414062 C 12.191406 9.414062 12.34375 9.261719 12.34375 9.074219 L 12.34375 7.910156 C 12.34375 7.480469 12.695312 7.132812 13.125 7.132812 L 17.957031 7.132812 C 18.390625 7.132812 18.738281 7.480469 18.738281 7.910156 L 18.738281 10.398438 C 18.738281 10.828125 18.390625 11.175781 17.957031 11.175781 L 17.109375 11.175781 L 16.558594 11.769531 L 16.003906 11.175781 L 13.042969 11.175781 C 12.949219 11.425781 12.816406 11.65625 12.652344 11.855469 L 15.707031 11.855469 L 16.558594 12.769531 L 17.40625 11.855469 L 17.957031 11.855469 C 18.765625 11.855469 19.421875 11.203125 19.421875 10.398438 L 19.421875 7.910156 C 19.421875 7.105469 18.765625 6.453125 17.957031 6.453125 Z M 17.957031 6.453125 "/>
</g>
<path style=" stroke:none;fill-rule:nonzero;fill:rgb(98.823529%,3.921569%,47.843137%);fill-opacity:1;" d="M 7.308594 19.050781 L 7.269531 18.582031 L 7.265625 18.582031 L 7.101562 19.046875 L 6.996094 19.046875 L 6.832031 18.582031 L 6.828125 18.582031 L 6.792969 19.050781 L 6.609375 19.050781 L 6.683594 18.261719 L 6.875 18.261719 L 7.050781 18.714844 L 7.226562 18.261719 L 7.417969 18.261719 L 7.488281 19.050781 Z M 7.308594 19.050781 "/>
<path style=" stroke:none;fill-rule:nonzero;fill:rgb(98.823529%,3.921569%,47.843137%);fill-opacity:1;" d="M 7.632812 18.65625 C 7.632812 18.539062 7.667969 18.445312 7.746094 18.363281 C 7.824219 18.285156 7.917969 18.246094 8.03125 18.246094 C 8.140625 18.246094 8.234375 18.285156 8.3125 18.363281 C 8.390625 18.441406 8.429688 18.539062 8.429688 18.65625 C 8.429688 18.773438 8.390625 18.867188 8.3125 18.949219 C 8.238281 19.027344 8.144531 19.066406 8.03125 19.066406 C 7.914062 19.066406 7.816406 19.027344 7.742188 18.949219 C 7.667969 18.871094 7.632812 18.773438 7.632812 18.65625 Z M 7.824219 18.65625 C 7.824219 18.695312 7.832031 18.734375 7.84375 18.769531 C 7.855469 18.804688 7.878906 18.832031 7.910156 18.855469 C 7.945312 18.878906 7.984375 18.890625 8.03125 18.890625 C 8.097656 18.890625 8.148438 18.867188 8.183594 18.824219 C 8.214844 18.777344 8.234375 18.722656 8.234375 18.65625 C 8.234375 18.589844 8.214844 18.535156 8.179688 18.488281 C 8.144531 18.441406 8.097656 18.417969 8.03125 18.417969 C 7.964844 18.417969 7.914062 18.441406 7.878906 18.488281 C 7.84375 18.535156 7.824219 18.589844 7.824219 18.65625 Z M 7.824219 18.65625 "/>
<path style=" stroke:none;fill-rule:nonzero;fill:rgb(98.823529%,3.921569%,47.843137%);fill-opacity:1;" d="M 8.578125 18.65625 C 8.578125 18.539062 8.617188 18.445312 8.695312 18.363281 C 8.773438 18.285156 8.867188 18.246094 8.976562 18.246094 C 9.085938 18.246094 9.179688 18.285156 9.257812 18.363281 C 9.335938 18.441406 9.375 18.539062 9.375 18.65625 C 9.375 18.773438 9.335938 18.867188 9.261719 18.949219 C 9.183594 19.027344 9.089844 19.066406 8.976562 19.066406 C 8.859375 19.066406 8.765625 19.027344 8.691406 18.949219 C 8.613281 18.871094 8.578125 18.773438 8.578125 18.65625 Z M 8.773438 18.65625 C 8.773438 18.695312 8.777344 18.734375 8.792969 18.769531 C 8.804688 18.804688 8.828125 18.832031 8.859375 18.855469 C 8.890625 18.878906 8.929688 18.890625 8.976562 18.890625 C 9.042969 18.890625 9.09375 18.867188 9.128906 18.824219 C 9.164062 18.777344 9.179688 18.722656 9.179688 18.65625 C 9.179688 18.589844 9.164062 18.535156 9.128906 18.488281 C 9.09375 18.441406 9.042969 18.417969 8.976562 18.417969 C 8.910156 18.417969 8.859375 18.441406 8.824219 18.488281 C 8.789062 18.535156 8.773438 18.589844 8.773438 18.65625 Z M 8.773438 18.65625 "/>
<path style=" stroke:none;fill-rule:nonzero;fill:rgb(98.823529%,3.921569%,47.843137%);fill-opacity:1;" d="M 9.5625 18.261719 L 9.789062 18.261719 C 9.898438 18.261719 9.992188 18.296875 10.070312 18.375 C 10.148438 18.449219 10.1875 18.542969 10.1875 18.65625 C 10.1875 18.769531 10.148438 18.863281 10.070312 18.941406 C 9.996094 19.015625 9.902344 19.050781 9.789062 19.050781 L 9.5625 19.050781 Z M 9.742188 18.890625 L 9.769531 18.890625 C 9.835938 18.890625 9.886719 18.867188 9.929688 18.824219 C 9.972656 18.78125 9.992188 18.722656 9.992188 18.65625 C 9.992188 18.589844 9.972656 18.535156 9.929688 18.488281 C 9.890625 18.445312 9.835938 18.421875 9.769531 18.421875 L 9.742188 18.421875 Z M 9.742188 18.890625 "/>
<path style=" stroke:none;fill-rule:nonzero;fill:rgb(98.823529%,3.921569%,47.843137%);fill-opacity:1;" d="M 10.554688 18.261719 L 10.554688 18.894531 L 10.828125 18.894531 L 10.828125 19.050781 L 10.375 19.050781 L 10.375 18.261719 Z M 10.554688 18.261719 "/>
<path style=" stroke:none;fill-rule:nonzero;fill:rgb(98.823529%,3.921569%,47.843137%);fill-opacity:1;" d="M 11.476562 18.261719 L 11.476562 18.417969 L 11.203125 18.417969 L 11.203125 18.574219 L 11.464844 18.574219 L 11.464844 18.734375 L 11.203125 18.734375 L 11.203125 18.894531 L 11.476562 18.894531 L 11.476562 19.050781 L 11.023438 19.050781 L 11.023438 18.261719 Z M 11.476562 18.261719 "/>
<path style=" stroke:none;fill-rule:nonzero;fill:rgb(98.823529%,3.921569%,47.843137%);fill-opacity:1;" d="M 12.453125 18.261719 L 12.773438 19.050781 L 12.582031 19.050781 L 12.519531 18.894531 L 12.21875 18.894531 L 12.164062 19.050781 L 11.96875 19.050781 L 12.289062 18.261719 Z M 12.460938 18.734375 L 12.371094 18.503906 L 12.28125 18.734375 Z M 12.460938 18.734375 "/>
<path style=" stroke:none;fill-rule:nonzero;fill:rgb(98.823529%,3.921569%,47.843137%);fill-opacity:1;" d="M 13.332031 18.886719 C 13.359375 18.886719 13.386719 18.882812 13.410156 18.875 C 13.4375 18.867188 13.457031 18.859375 13.46875 18.851562 L 13.488281 18.839844 L 13.5625 18.992188 C 13.5625 18.996094 13.558594 18.996094 13.554688 19 C 13.546875 19.003906 13.539062 19.011719 13.519531 19.019531 C 13.503906 19.027344 13.488281 19.035156 13.46875 19.042969 C 13.453125 19.046875 13.425781 19.054688 13.398438 19.058594 C 13.367188 19.0625 13.335938 19.066406 13.304688 19.066406 C 13.230469 19.066406 13.160156 19.046875 13.09375 19.011719 C 13.027344 18.976562 12.976562 18.925781 12.933594 18.863281 C 12.894531 18.800781 12.875 18.730469 12.875 18.65625 C 12.875 18.601562 12.886719 18.546875 12.910156 18.496094 C 12.933594 18.445312 12.964844 18.402344 13.003906 18.367188 C 13.042969 18.328125 13.089844 18.300781 13.140625 18.277344 C 13.195312 18.257812 13.25 18.246094 13.304688 18.246094 C 13.355469 18.246094 13.402344 18.253906 13.445312 18.265625 C 13.488281 18.277344 13.519531 18.289062 13.539062 18.300781 L 13.5625 18.320312 L 13.488281 18.472656 C 13.484375 18.46875 13.476562 18.464844 13.464844 18.457031 C 13.457031 18.453125 13.441406 18.445312 13.414062 18.4375 C 13.386719 18.429688 13.359375 18.421875 13.332031 18.421875 C 13.289062 18.421875 13.25 18.429688 13.214844 18.445312 C 13.179688 18.457031 13.152344 18.476562 13.132812 18.5 C 13.113281 18.523438 13.097656 18.546875 13.085938 18.574219 C 13.078125 18.601562 13.070312 18.628906 13.070312 18.65625 C 13.070312 18.714844 13.09375 18.769531 13.136719 18.816406 C 13.183594 18.863281 13.25 18.886719 13.332031 18.886719 Z M 13.332031 18.886719 "/>
<path style=" stroke:none;fill-rule:nonzero;fill:rgb(98.823529%,3.921569%,47.843137%);fill-opacity:1;" d="M 13.6875 18.417969 L 13.6875 18.261719 L 14.246094 18.261719 L 14.246094 18.417969 L 14.058594 18.417969 L 14.058594 19.050781 L 13.878906 19.050781 L 13.878906 18.417969 Z M 13.6875 18.417969 "/>
<path style=" stroke:none;fill-rule:nonzero;fill:rgb(98.823529%,3.921569%,47.843137%);fill-opacity:1;" d="M 14.597656 18.261719 L 14.597656 19.050781 L 14.417969 19.050781 L 14.417969 18.261719 Z M 14.597656 18.261719 "/>
<path style=" stroke:none;fill-rule:nonzero;fill:rgb(98.823529%,3.921569%,47.843137%);fill-opacity:1;" d="M 15.066406 19.050781 L 14.734375 18.261719 L 14.9375 18.261719 L 15.136719 18.78125 L 15.335938 18.261719 L 15.539062 18.261719 L 15.207031 19.050781 Z M 15.066406 19.050781 "/>
<path style=" stroke:none;fill-rule:nonzero;fill:rgb(98.823529%,3.921569%,47.843137%);fill-opacity:1;" d="M 15.855469 18.261719 L 15.855469 19.050781 L 15.675781 19.050781 L 15.675781 18.261719 Z M 15.855469 18.261719 "/>
<path style=" stroke:none;fill-rule:nonzero;fill:rgb(98.823529%,3.921569%,47.843137%);fill-opacity:1;" d="M 16.027344 18.417969 L 16.027344 18.261719 L 16.585938 18.261719 L 16.585938 18.417969 L 16.394531 18.417969 L 16.394531 19.050781 L 16.214844 19.050781 L 16.214844 18.417969 Z M 16.027344 18.417969 "/>
<path style=" stroke:none;fill-rule:nonzero;fill:rgb(98.823529%,3.921569%,47.843137%);fill-opacity:1;" d="M 16.667969 18.261719 L 16.886719 18.261719 L 17.050781 18.511719 L 17.214844 18.261719 L 17.433594 18.261719 L 17.140625 18.695312 L 17.140625 19.050781 L 16.960938 19.050781 L 16.960938 18.695312 Z M 16.667969 18.261719 "/>
<path style=" stroke:none;fill-rule:nonzero;fill:rgb(0%,0%,0%);fill-opacity:1;" d="M 4.105469 14.378906 C 4.246094 14.378906 4.378906 14.402344 4.5 14.453125 C 4.621094 14.5 4.722656 14.566406 4.8125 14.65625 C 4.898438 14.742188 4.96875 14.84375 5.015625 14.960938 C 5.066406 15.078125 5.089844 15.207031 5.089844 15.347656 C 5.089844 15.488281 5.066406 15.617188 5.015625 15.734375 C 4.96875 15.855469 4.898438 15.957031 4.8125 16.042969 C 4.722656 16.132812 4.621094 16.199219 4.5 16.25 C 4.378906 16.296875 4.246094 16.320312 4.105469 16.320312 L 3.371094 16.320312 L 3.371094 14.378906 Z M 4.09375 15.929688 C 4.207031 15.929688 4.304688 15.90625 4.386719 15.855469 C 4.472656 15.804688 4.539062 15.734375 4.589844 15.648438 C 4.636719 15.5625 4.660156 15.460938 4.660156 15.347656 C 4.660156 15.234375 4.636719 15.136719 4.589844 15.046875 C 4.539062 14.960938 4.472656 14.894531 4.386719 14.84375 C 4.304688 14.796875 4.207031 14.769531 4.09375 14.769531 L 3.792969 14.769531 L 3.792969 15.929688 Z M 4.09375 15.929688 "/>
<path style=" stroke:none;fill-rule:nonzero;fill:rgb(0%,0%,0%);fill-opacity:1;" d="M 5.425781 16.320312 L 5.425781 14.378906 L 5.847656 14.378906 L 5.847656 16.320312 Z M 5.425781 16.320312 "/>
<path style=" stroke:none;fill-rule:nonzero;fill:rgb(0%,0%,0%);fill-opacity:1;" d="M 7.578125 16.320312 L 7.445312 15.953125 L 6.671875 15.953125 L 6.539062 16.320312 L 6.09375 16.320312 L 6.855469 14.378906 L 7.25 14.378906 L 8.035156 16.320312 Z M 7.054688 14.894531 L 6.804688 15.585938 L 7.3125 15.585938 Z M 7.054688 14.894531 "/>
<path style=" stroke:none;fill-rule:nonzero;fill:rgb(0%,0%,0%);fill-opacity:1;" d="M 8.703125 15.929688 L 9.445312 15.929688 L 9.445312 16.320312 L 8.28125 16.320312 L 8.28125 14.378906 L 8.703125 14.378906 Z M 8.703125 15.929688 "/>
<path style=" stroke:none;fill-rule:nonzero;fill:rgb(0%,0%,0%);fill-opacity:1;" d="M 10.648438 16.363281 C 10.5 16.363281 10.363281 16.335938 10.238281 16.285156 C 10.113281 16.234375 10.003906 16.164062 9.910156 16.074219 C 9.816406 15.980469 9.742188 15.875 9.691406 15.75 C 9.640625 15.628906 9.613281 15.496094 9.613281 15.351562 C 9.613281 15.207031 9.640625 15.074219 9.691406 14.949219 C 9.742188 14.828125 9.816406 14.71875 9.910156 14.628906 C 10.003906 14.535156 10.113281 14.464844 10.238281 14.414062 C 10.363281 14.363281 10.5 14.335938 10.648438 14.335938 C 10.796875 14.335938 10.933594 14.363281 11.058594 14.414062 C 11.183594 14.464844 11.292969 14.535156 11.386719 14.628906 C 11.480469 14.71875 11.550781 14.828125 11.601562 14.949219 C 11.65625 15.074219 11.679688 15.207031 11.679688 15.351562 C 11.679688 15.496094 11.65625 15.628906 11.601562 15.75 C 11.550781 15.875 11.480469 15.980469 11.386719 16.074219 C 11.292969 16.164062 11.183594 16.234375 11.058594 16.285156 C 10.933594 16.335938 10.796875 16.363281 10.648438 16.363281 Z M 10.648438 15.964844 C 10.765625 15.964844 10.871094 15.9375 10.960938 15.886719 C 11.054688 15.832031 11.125 15.757812 11.179688 15.667969 C 11.230469 15.574219 11.257812 15.46875 11.257812 15.351562 C 11.257812 15.234375 11.230469 15.128906 11.179688 15.035156 C 11.125 14.941406 11.054688 14.871094 10.960938 14.816406 C 10.871094 14.761719 10.765625 14.734375 10.648438 14.734375 C 10.535156 14.734375 10.429688 14.761719 10.339844 14.816406 C 10.246094 14.871094 10.171875 14.941406 10.117188 15.035156 C 10.066406 15.128906 10.039062 15.234375 10.039062 15.351562 C 10.039062 15.464844 10.066406 15.570312 10.117188 15.664062 C 10.171875 15.757812 10.246094 15.832031 10.339844 15.886719 C 10.429688 15.9375 10.535156 15.964844 10.648438 15.964844 Z M 10.648438 15.964844 "/>
<path style=" stroke:none;fill-rule:nonzero;fill:rgb(0%,0%,0%);fill-opacity:1;" d="M 12.863281 15.304688 L 13.894531 15.304688 C 13.894531 15.460938 13.871094 15.601562 13.820312 15.730469 C 13.773438 15.859375 13.707031 15.96875 13.617188 16.0625 C 13.53125 16.15625 13.425781 16.230469 13.304688 16.285156 C 13.183594 16.335938 13.050781 16.363281 12.902344 16.363281 C 12.761719 16.363281 12.628906 16.335938 12.507812 16.289062 C 12.386719 16.238281 12.277344 16.167969 12.1875 16.078125 C 12.09375 15.984375 12.023438 15.878906 11.976562 15.753906 C 11.925781 15.632812 11.898438 15.496094 11.898438 15.351562 C 11.898438 15.207031 11.925781 15.074219 11.972656 14.949219 C 12.023438 14.828125 12.089844 14.71875 12.179688 14.628906 C 12.269531 14.535156 12.375 14.464844 12.5 14.414062 C 12.621094 14.363281 12.753906 14.335938 12.894531 14.335938 C 13.054688 14.335938 13.203125 14.371094 13.34375 14.433594 C 13.476562 14.496094 13.59375 14.582031 13.683594 14.695312 C 13.777344 14.804688 13.839844 14.933594 13.867188 15.078125 L 13.4375 15.078125 C 13.394531 14.972656 13.328125 14.890625 13.230469 14.828125 C 13.136719 14.769531 13.027344 14.738281 12.902344 14.738281 C 12.789062 14.738281 12.6875 14.765625 12.601562 14.816406 C 12.515625 14.871094 12.445312 14.941406 12.398438 15.03125 C 12.347656 15.125 12.324219 15.230469 12.324219 15.351562 C 12.324219 15.472656 12.347656 15.578125 12.394531 15.671875 C 12.445312 15.761719 12.511719 15.832031 12.597656 15.886719 C 12.683594 15.9375 12.785156 15.960938 12.902344 15.960938 C 13.027344 15.960938 13.140625 15.933594 13.242188 15.871094 C 13.34375 15.808594 13.410156 15.730469 13.445312 15.628906 L 12.863281 15.628906 Z M 12.863281 15.304688 "/>
<path style=" stroke:none;fill-rule:nonzero;fill:rgb(0%,0%,0%);fill-opacity:1;" d="M 15.003906 16.363281 C 14.847656 16.363281 14.710938 16.328125 14.589844 16.265625 C 14.472656 16.199219 14.375 16.109375 14.304688 15.992188 C 14.234375 15.875 14.199219 15.742188 14.199219 15.589844 L 14.199219 14.378906 L 14.621094 14.378906 L 14.621094 15.570312 C 14.621094 15.691406 14.65625 15.789062 14.730469 15.859375 C 14.800781 15.929688 14.890625 15.964844 15.003906 15.964844 C 15.113281 15.964844 15.207031 15.929688 15.277344 15.859375 C 15.347656 15.789062 15.382812 15.691406 15.382812 15.570312 L 15.382812 14.378906 L 15.804688 14.378906 L 15.804688 15.589844 C 15.804688 15.742188 15.769531 15.875 15.699219 15.992188 C 15.628906 16.109375 15.535156 16.199219 15.414062 16.265625 C 15.292969 16.328125 15.15625 16.363281 15.003906 16.363281 Z M 15.003906 16.363281 "/>
<path style=" stroke:none;fill-rule:nonzero;fill:rgb(0%,0%,0%);fill-opacity:1;" d="M 16.648438 15.929688 L 17.421875 15.929688 L 17.421875 16.320312 L 16.226562 16.320312 L 16.226562 14.378906 L 17.390625 14.378906 L 17.390625 14.769531 L 16.648438 14.769531 L 16.648438 15.152344 L 17.320312 15.152344 L 17.320312 15.53125 L 16.648438 15.53125 Z M 16.648438 15.929688 "/>
<path style=" stroke:none;fill-rule:nonzero;fill:rgb(98.823529%,3.921569%,47.843137%);fill-opacity:1;" d="M 19.355469 16.414062 L 19.199219 15.984375 L 18.296875 15.984375 L 18.144531 16.414062 L 17.628906 16.414062 L 18.511719 14.160156 L 18.972656 14.160156 L 19.882812 16.414062 Z M 18.746094 14.753906 L 18.453125 15.558594 L 19.042969 15.558594 Z M 18.746094 14.753906 "/>
<path style=" stroke:none;fill-rule:nonzero;fill:rgb(98.823529%,3.921569%,47.843137%);fill-opacity:1;" d="M 20.171875 16.414062 L 20.171875 14.160156 L 20.660156 14.160156 L 20.660156 16.414062 Z M 20.171875 16.414062 "/>
</g>
</svg>
