<?xml version="1.0" encoding="UTF-8"?>
<svg xmlns="http://www.w3.org/2000/svg" xmlns:xlink="http://www.w3.org/1999/xlink" width="16px" height="16px" viewBox="0 0 16 16" version="1.1">
<defs>
<clipPath id="clip1">
  <path d="M 3.058594 4.296875 L 8.234375 4.296875 L 8.234375 8.519531 L 3.058594 8.519531 Z M 3.058594 4.296875 "/>
</clipPath>
<clipPath id="clip2">
  <path d="M 7.765625 4.296875 L 12.945312 4.296875 L 12.945312 8.519531 L 7.765625 8.519531 Z M 7.765625 4.296875 "/>
</clipPath>
</defs>
<g id="surface1">
<path style=" stroke:none;fill-rule:nonzero;fill:rgb(0.784314%,18.039216%,26.274511%);fill-opacity:1;" d="M 6.625 6.113281 C 6.625 6.128906 6.625 6.144531 6.621094 6.160156 C 6.617188 6.179688 6.613281 6.195312 6.609375 6.207031 C 6.601562 6.222656 6.59375 6.238281 6.585938 6.253906 C 6.574219 6.265625 6.566406 6.277344 6.554688 6.289062 C 6.542969 6.300781 6.527344 6.3125 6.515625 6.320312 C 6.5 6.332031 6.488281 6.339844 6.472656 6.34375 C 6.457031 6.351562 6.441406 6.355469 6.421875 6.359375 C 6.40625 6.363281 6.390625 6.363281 6.375 6.363281 C 6.359375 6.363281 6.339844 6.363281 6.324219 6.359375 C 6.308594 6.355469 6.292969 6.351562 6.277344 6.34375 C 6.261719 6.339844 6.246094 6.332031 6.234375 6.320312 C 6.21875 6.3125 6.207031 6.300781 6.195312 6.289062 C 6.183594 6.277344 6.175781 6.265625 6.164062 6.253906 C 6.15625 6.238281 6.148438 6.222656 6.140625 6.207031 C 6.136719 6.195312 6.128906 6.179688 6.125 6.160156 C 6.125 6.144531 6.121094 6.128906 6.121094 6.113281 C 6.121094 6.097656 6.125 6.078125 6.125 6.0625 C 6.128906 6.046875 6.136719 6.03125 6.140625 6.015625 C 6.148438 6 6.15625 5.988281 6.164062 5.972656 C 6.175781 5.957031 6.183594 5.945312 6.195312 5.933594 C 6.207031 5.921875 6.21875 5.914062 6.234375 5.902344 C 6.246094 5.894531 6.261719 5.886719 6.277344 5.878906 C 6.292969 5.875 6.308594 5.867188 6.324219 5.867188 C 6.339844 5.863281 6.359375 5.859375 6.375 5.859375 C 6.390625 5.859375 6.40625 5.863281 6.421875 5.867188 C 6.441406 5.867188 6.457031 5.875 6.472656 5.878906 C 6.488281 5.886719 6.5 5.894531 6.515625 5.902344 C 6.527344 5.914062 6.542969 5.921875 6.554688 5.933594 C 6.566406 5.945312 6.574219 5.957031 6.585938 5.972656 C 6.59375 5.988281 6.601562 6 6.609375 6.015625 C 6.613281 6.03125 6.617188 6.046875 6.621094 6.0625 C 6.625 6.078125 6.625 6.097656 6.625 6.113281 Z M 6.625 6.113281 "/>
<path style=" stroke:none;fill-rule:nonzero;fill:rgb(0.784314%,18.039216%,26.274511%);fill-opacity:1;" d="M 5.578125 5.859375 C 5.714844 5.859375 5.828125 5.972656 5.828125 6.113281 C 5.828125 6.25 5.714844 6.363281 5.578125 6.363281 C 5.4375 6.363281 5.324219 6.25 5.324219 6.113281 C 5.324219 5.972656 5.4375 5.859375 5.578125 5.859375 Z M 5.578125 5.859375 "/>
<path style=" stroke:none;fill-rule:nonzero;fill:rgb(0.784314%,18.039216%,26.274511%);fill-opacity:1;" d="M 5.03125 6.113281 C 5.03125 6.128906 5.027344 6.144531 5.027344 6.160156 C 5.023438 6.179688 5.019531 6.195312 5.011719 6.207031 C 5.003906 6.222656 4.996094 6.238281 4.988281 6.253906 C 4.980469 6.265625 4.96875 6.277344 4.957031 6.289062 C 4.945312 6.300781 4.933594 6.3125 4.917969 6.320312 C 4.90625 6.332031 4.890625 6.339844 4.875 6.34375 C 4.859375 6.351562 4.84375 6.355469 4.828125 6.359375 C 4.8125 6.363281 4.792969 6.363281 4.777344 6.363281 C 4.761719 6.363281 4.746094 6.363281 4.730469 6.359375 C 4.710938 6.355469 4.695312 6.351562 4.683594 6.34375 C 4.667969 6.339844 4.652344 6.332031 4.636719 6.320312 C 4.625 6.3125 4.613281 6.300781 4.601562 6.289062 C 4.589844 6.277344 4.578125 6.265625 4.570312 6.253906 C 4.558594 6.238281 4.550781 6.222656 4.546875 6.207031 C 4.539062 6.195312 4.535156 6.179688 4.53125 6.160156 C 4.527344 6.144531 4.527344 6.128906 4.527344 6.113281 C 4.527344 6.097656 4.527344 6.078125 4.53125 6.0625 C 4.535156 6.046875 4.539062 6.03125 4.546875 6.015625 C 4.550781 6 4.558594 5.988281 4.570312 5.972656 C 4.578125 5.957031 4.589844 5.945312 4.601562 5.933594 C 4.613281 5.921875 4.625 5.914062 4.636719 5.902344 C 4.652344 5.894531 4.667969 5.886719 4.683594 5.878906 C 4.695312 5.875 4.710938 5.867188 4.730469 5.867188 C 4.746094 5.863281 4.761719 5.859375 4.777344 5.859375 C 4.792969 5.859375 4.8125 5.863281 4.828125 5.867188 C 4.84375 5.867188 4.859375 5.875 4.875 5.878906 C 4.890625 5.886719 4.90625 5.894531 4.917969 5.902344 C 4.933594 5.914062 4.945312 5.921875 4.957031 5.933594 C 4.96875 5.945312 4.980469 5.957031 4.988281 5.972656 C 4.996094 5.988281 5.003906 6 5.011719 6.015625 C 5.019531 6.03125 5.023438 6.046875 5.027344 6.0625 C 5.027344 6.078125 5.03125 6.097656 5.03125 6.113281 Z M 5.03125 6.113281 "/>
<path style=" stroke:none;fill-rule:nonzero;fill:rgb(98.823529%,3.921569%,47.843137%);fill-opacity:1;" d="M 11.226562 5.859375 C 11.367188 5.859375 11.480469 5.972656 11.480469 6.113281 C 11.480469 6.25 11.367188 6.363281 11.226562 6.363281 C 11.089844 6.363281 10.976562 6.25 10.976562 6.113281 C 10.976562 5.972656 11.089844 5.859375 11.226562 5.859375 Z M 11.226562 5.859375 "/>
<path style=" stroke:none;fill-rule:nonzero;fill:rgb(98.823529%,3.921569%,47.843137%);fill-opacity:1;" d="M 10.429688 5.859375 C 10.570312 5.859375 10.683594 5.972656 10.683594 6.113281 C 10.683594 6.25 10.570312 6.363281 10.429688 6.363281 C 10.289062 6.363281 10.175781 6.25 10.175781 6.113281 C 10.175781 5.972656 10.289062 5.859375 10.429688 5.859375 Z M 10.429688 5.859375 "/>
<path style=" stroke:none;fill-rule:nonzero;fill:rgb(98.823529%,3.921569%,47.843137%);fill-opacity:1;" d="M 9.632812 5.859375 C 9.769531 5.859375 9.882812 5.972656 9.882812 6.113281 C 9.882812 6.25 9.769531 6.363281 9.632812 6.363281 C 9.492188 6.363281 9.378906 6.25 9.378906 6.113281 C 9.378906 5.972656 9.492188 5.859375 9.632812 5.859375 Z M 9.632812 5.859375 "/>
<g clip-path="url(#clip1)" clip-rule="nonzero">
<path style=" stroke:none;fill-rule:nonzero;fill:rgb(98.823529%,3.921569%,47.843137%);fill-opacity:1;" d="M 8.003906 5.347656 C 7.878906 5.347656 7.777344 5.445312 7.777344 5.570312 L 7.777344 6.933594 C 7.777344 7.21875 7.542969 7.449219 7.253906 7.449219 L 5.335938 7.449219 L 4.96875 7.847656 L 4.597656 7.449219 L 4.035156 7.449219 C 3.746094 7.449219 3.511719 7.21875 3.511719 6.933594 L 3.511719 5.273438 C 3.511719 4.988281 3.746094 4.753906 4.035156 4.753906 L 7.3125 4.753906 C 7.371094 4.589844 7.460938 4.433594 7.570312 4.300781 L 4.035156 4.300781 C 3.496094 4.300781 3.058594 4.738281 3.058594 5.273438 L 3.058594 6.933594 C 3.058594 7.46875 3.496094 7.902344 4.035156 7.902344 L 4.402344 7.902344 L 4.96875 8.515625 L 5.535156 7.902344 L 7.253906 7.902344 C 7.792969 7.902344 8.230469 7.46875 8.230469 6.933594 L 8.230469 5.570312 C 8.230469 5.445312 8.128906 5.347656 8.003906 5.347656 Z M 8.003906 5.347656 "/>
</g>
<g clip-path="url(#clip2)" clip-rule="nonzero">
<path style=" stroke:none;fill-rule:nonzero;fill:rgb(0.784314%,18.039216%,26.274511%);fill-opacity:1;" d="M 11.972656 4.300781 L 8.75 4.300781 C 8.214844 4.300781 7.777344 4.738281 7.777344 5.273438 L 7.777344 6.050781 C 7.777344 6.175781 7.878906 6.277344 8.003906 6.277344 C 8.128906 6.277344 8.230469 6.175781 8.230469 6.050781 L 8.230469 5.273438 C 8.230469 4.988281 8.464844 4.753906 8.75 4.753906 L 11.972656 4.753906 C 12.257812 4.753906 12.492188 4.988281 12.492188 5.273438 L 12.492188 6.933594 C 12.492188 7.21875 12.257812 7.449219 11.972656 7.449219 L 11.40625 7.449219 L 11.039062 7.847656 L 10.667969 7.449219 L 8.695312 7.449219 C 8.632812 7.617188 8.546875 7.769531 8.433594 7.902344 L 10.472656 7.902344 L 11.039062 8.515625 L 11.605469 7.902344 L 11.972656 7.902344 C 12.511719 7.902344 12.945312 7.46875 12.945312 6.933594 L 12.945312 5.273438 C 12.945312 4.738281 12.511719 4.300781 11.972656 4.300781 Z M 11.972656 4.300781 "/>
</g>
<path style=" stroke:none;fill-rule:nonzero;fill:rgb(98.823529%,3.921569%,47.843137%);fill-opacity:1;" d="M 4.871094 12.699219 L 4.847656 12.386719 L 4.84375 12.386719 L 4.734375 12.699219 L 4.664062 12.699219 L 4.554688 12.386719 L 4.550781 12.386719 L 4.527344 12.699219 L 4.40625 12.699219 L 4.453125 12.171875 L 4.582031 12.171875 L 4.699219 12.476562 L 4.816406 12.171875 L 4.945312 12.171875 L 4.992188 12.699219 Z M 4.871094 12.699219 "/>
<path style=" stroke:none;fill-rule:nonzero;fill:rgb(98.823529%,3.921569%,47.843137%);fill-opacity:1;" d="M 5.085938 12.4375 C 5.085938 12.359375 5.113281 12.296875 5.164062 12.242188 C 5.21875 12.191406 5.28125 12.164062 5.351562 12.164062 C 5.425781 12.164062 5.488281 12.191406 5.542969 12.242188 C 5.59375 12.296875 5.617188 12.359375 5.617188 12.4375 C 5.617188 12.515625 5.59375 12.578125 5.542969 12.632812 C 5.492188 12.683594 5.429688 12.710938 5.351562 12.710938 C 5.277344 12.710938 5.210938 12.683594 5.160156 12.632812 C 5.113281 12.578125 5.085938 12.515625 5.085938 12.4375 Z M 5.21875 12.4375 C 5.21875 12.464844 5.222656 12.488281 5.230469 12.511719 C 5.238281 12.535156 5.253906 12.554688 5.273438 12.570312 C 5.296875 12.585938 5.320312 12.59375 5.351562 12.59375 C 5.398438 12.59375 5.433594 12.578125 5.453125 12.546875 C 5.476562 12.519531 5.488281 12.480469 5.488281 12.4375 C 5.488281 12.394531 5.476562 12.355469 5.453125 12.328125 C 5.429688 12.296875 5.398438 12.28125 5.351562 12.28125 C 5.308594 12.28125 5.277344 12.296875 5.253906 12.328125 C 5.230469 12.355469 5.21875 12.394531 5.21875 12.4375 Z M 5.21875 12.4375 "/>
<path style=" stroke:none;fill-rule:nonzero;fill:rgb(98.823529%,3.921569%,47.843137%);fill-opacity:1;" d="M 5.71875 12.4375 C 5.71875 12.359375 5.746094 12.296875 5.796875 12.242188 C 5.847656 12.191406 5.910156 12.164062 5.984375 12.164062 C 6.058594 12.164062 6.121094 12.191406 6.171875 12.242188 C 6.222656 12.296875 6.25 12.359375 6.25 12.4375 C 6.25 12.515625 6.226562 12.578125 6.175781 12.632812 C 6.125 12.683594 6.058594 12.710938 5.984375 12.710938 C 5.90625 12.710938 5.84375 12.683594 5.792969 12.632812 C 5.742188 12.578125 5.71875 12.515625 5.71875 12.4375 Z M 5.847656 12.4375 C 5.847656 12.464844 5.851562 12.488281 5.859375 12.511719 C 5.871094 12.535156 5.882812 12.554688 5.90625 12.570312 C 5.925781 12.585938 5.953125 12.59375 5.984375 12.59375 C 6.03125 12.59375 6.0625 12.578125 6.085938 12.546875 C 6.109375 12.519531 6.121094 12.480469 6.121094 12.4375 C 6.121094 12.394531 6.109375 12.355469 6.085938 12.328125 C 6.0625 12.296875 6.027344 12.28125 5.984375 12.28125 C 5.941406 12.28125 5.90625 12.296875 5.882812 12.328125 C 5.859375 12.355469 5.847656 12.394531 5.847656 12.4375 Z M 5.847656 12.4375 "/>
<path style=" stroke:none;fill-rule:nonzero;fill:rgb(98.823529%,3.921569%,47.843137%);fill-opacity:1;" d="M 6.375 12.171875 L 6.527344 12.171875 C 6.601562 12.171875 6.664062 12.199219 6.714844 12.25 C 6.765625 12.300781 6.792969 12.363281 6.792969 12.4375 C 6.792969 12.511719 6.765625 12.574219 6.714844 12.625 C 6.664062 12.675781 6.601562 12.699219 6.527344 12.699219 L 6.375 12.699219 Z M 6.492188 12.59375 L 6.511719 12.59375 C 6.554688 12.59375 6.59375 12.578125 6.621094 12.550781 C 6.648438 12.519531 6.664062 12.484375 6.664062 12.4375 C 6.664062 12.394531 6.648438 12.355469 6.621094 12.324219 C 6.59375 12.296875 6.558594 12.28125 6.511719 12.28125 L 6.492188 12.28125 Z M 6.492188 12.59375 "/>
<path style=" stroke:none;fill-rule:nonzero;fill:rgb(98.823529%,3.921569%,47.843137%);fill-opacity:1;" d="M 7.035156 12.171875 L 7.035156 12.59375 L 7.21875 12.59375 L 7.21875 12.699219 L 6.917969 12.699219 L 6.917969 12.171875 Z M 7.035156 12.171875 "/>
<path style=" stroke:none;fill-rule:nonzero;fill:rgb(98.823529%,3.921569%,47.843137%);fill-opacity:1;" d="M 7.648438 12.171875 L 7.648438 12.277344 L 7.46875 12.277344 L 7.46875 12.382812 L 7.640625 12.382812 L 7.640625 12.488281 L 7.46875 12.488281 L 7.46875 12.59375 L 7.648438 12.59375 L 7.648438 12.699219 L 7.347656 12.699219 L 7.347656 12.171875 Z M 7.648438 12.171875 "/>
<path style=" stroke:none;fill-rule:nonzero;fill:rgb(98.823529%,3.921569%,47.843137%);fill-opacity:1;" d="M 8.304688 12.171875 L 8.515625 12.699219 L 8.386719 12.699219 L 8.347656 12.59375 L 8.148438 12.59375 L 8.109375 12.699219 L 7.980469 12.699219 L 8.191406 12.171875 Z M 8.308594 12.492188 L 8.25 12.335938 L 8.246094 12.335938 L 8.1875 12.492188 Z M 8.308594 12.492188 "/>
<path style=" stroke:none;fill-rule:nonzero;fill:rgb(98.823529%,3.921569%,47.843137%);fill-opacity:1;" d="M 8.886719 12.59375 C 8.90625 12.59375 8.921875 12.589844 8.941406 12.585938 C 8.957031 12.578125 8.972656 12.574219 8.980469 12.566406 L 8.992188 12.558594 L 9.042969 12.664062 C 9.039062 12.664062 9.039062 12.664062 9.035156 12.667969 C 9.03125 12.667969 9.023438 12.671875 9.015625 12.679688 C 9.003906 12.683594 8.992188 12.691406 8.980469 12.695312 C 8.96875 12.699219 8.953125 12.703125 8.929688 12.703125 C 8.910156 12.707031 8.890625 12.710938 8.871094 12.710938 C 8.820312 12.710938 8.773438 12.699219 8.730469 12.675781 C 8.6875 12.648438 8.652344 12.617188 8.625 12.574219 C 8.597656 12.53125 8.582031 12.488281 8.582031 12.4375 C 8.582031 12.402344 8.589844 12.367188 8.605469 12.332031 C 8.621094 12.296875 8.644531 12.269531 8.671875 12.246094 C 8.695312 12.21875 8.726562 12.199219 8.761719 12.1875 C 8.796875 12.171875 8.832031 12.164062 8.871094 12.164062 C 8.902344 12.164062 8.933594 12.167969 8.964844 12.175781 C 8.992188 12.183594 9.011719 12.191406 9.023438 12.199219 L 9.042969 12.210938 L 8.992188 12.316406 C 8.988281 12.3125 8.984375 12.308594 8.976562 12.304688 C 8.972656 12.300781 8.960938 12.296875 8.941406 12.292969 C 8.925781 12.285156 8.90625 12.28125 8.886719 12.28125 C 8.859375 12.28125 8.832031 12.285156 8.808594 12.296875 C 8.785156 12.304688 8.769531 12.316406 8.753906 12.332031 C 8.742188 12.347656 8.730469 12.367188 8.722656 12.382812 C 8.71875 12.402344 8.714844 12.417969 8.714844 12.4375 C 8.714844 12.476562 8.730469 12.511719 8.757812 12.546875 C 8.789062 12.578125 8.832031 12.59375 8.886719 12.59375 Z M 8.886719 12.59375 "/>
<path style=" stroke:none;fill-rule:nonzero;fill:rgb(98.823529%,3.921569%,47.843137%);fill-opacity:1;" d="M 9.125 12.277344 L 9.125 12.171875 L 9.496094 12.171875 L 9.496094 12.277344 L 9.371094 12.277344 L 9.371094 12.699219 L 9.25 12.699219 L 9.25 12.277344 Z M 9.125 12.277344 "/>
<path style=" stroke:none;fill-rule:nonzero;fill:rgb(98.823529%,3.921569%,47.843137%);fill-opacity:1;" d="M 9.730469 12.171875 L 9.730469 12.699219 L 9.613281 12.699219 L 9.613281 12.171875 Z M 9.730469 12.171875 "/>
<path style=" stroke:none;fill-rule:nonzero;fill:rgb(98.823529%,3.921569%,47.843137%);fill-opacity:1;" d="M 10.042969 12.699219 L 9.824219 12.171875 L 9.957031 12.171875 L 10.089844 12.519531 L 10.222656 12.171875 L 10.359375 12.171875 L 10.136719 12.699219 Z M 10.042969 12.699219 "/>
<path style=" stroke:none;fill-rule:nonzero;fill:rgb(98.823529%,3.921569%,47.843137%);fill-opacity:1;" d="M 10.570312 12.171875 L 10.570312 12.699219 L 10.449219 12.699219 L 10.449219 12.171875 Z M 10.570312 12.171875 "/>
<path style=" stroke:none;fill-rule:nonzero;fill:rgb(98.823529%,3.921569%,47.843137%);fill-opacity:1;" d="M 10.6875 12.277344 L 10.6875 12.171875 L 11.054688 12.171875 L 11.054688 12.277344 L 10.929688 12.277344 L 10.929688 12.699219 L 10.8125 12.699219 L 10.8125 12.277344 Z M 10.6875 12.277344 "/>
<path style=" stroke:none;fill-rule:nonzero;fill:rgb(98.823529%,3.921569%,47.843137%);fill-opacity:1;" d="M 11.113281 12.171875 L 11.257812 12.171875 L 11.367188 12.34375 L 11.476562 12.171875 L 11.621094 12.171875 L 11.425781 12.464844 L 11.425781 12.699219 L 11.308594 12.699219 L 11.308594 12.464844 Z M 11.113281 12.171875 "/>
<path style=" stroke:none;fill-rule:nonzero;fill:rgb(0%,0%,0%);fill-opacity:1;" d="M 2.738281 9.585938 C 2.832031 9.585938 2.917969 9.601562 3 9.632812 C 3.078125 9.667969 3.148438 9.710938 3.207031 9.769531 C 3.265625 9.828125 3.3125 9.894531 3.34375 9.972656 C 3.375 10.050781 3.394531 10.136719 3.394531 10.230469 C 3.394531 10.324219 3.375 10.410156 3.34375 10.492188 C 3.3125 10.570312 3.265625 10.636719 3.207031 10.695312 C 3.148438 10.753906 3.078125 10.800781 3 10.832031 C 2.917969 10.863281 2.832031 10.878906 2.738281 10.878906 L 2.246094 10.878906 L 2.246094 9.585938 Z M 2.730469 10.621094 C 2.804688 10.621094 2.867188 10.601562 2.925781 10.570312 C 2.980469 10.535156 3.027344 10.492188 3.058594 10.433594 C 3.089844 10.375 3.105469 10.308594 3.105469 10.230469 C 3.105469 10.15625 3.089844 10.089844 3.058594 10.03125 C 3.027344 9.972656 2.980469 9.929688 2.925781 9.894531 C 2.867188 9.863281 2.804688 9.847656 2.730469 9.847656 L 2.527344 9.847656 L 2.527344 10.621094 Z M 2.730469 10.621094 "/>
<path style=" stroke:none;fill-rule:nonzero;fill:rgb(0%,0%,0%);fill-opacity:1;" d="M 3.617188 10.878906 L 3.617188 9.585938 L 3.898438 9.585938 L 3.898438 10.878906 Z M 3.617188 10.878906 "/>
<path style=" stroke:none;fill-rule:nonzero;fill:rgb(0%,0%,0%);fill-opacity:1;" d="M 5.054688 10.878906 L 4.960938 10.632812 L 4.445312 10.632812 L 4.359375 10.878906 L 4.0625 10.878906 L 4.570312 9.585938 L 4.832031 9.585938 L 5.355469 10.878906 Z M 4.703125 9.929688 L 4.535156 10.390625 L 4.875 10.390625 Z M 4.703125 9.929688 "/>
<path style=" stroke:none;fill-rule:nonzero;fill:rgb(0%,0%,0%);fill-opacity:1;" d="M 5.800781 10.621094 L 6.296875 10.621094 L 6.296875 10.878906 L 5.519531 10.878906 L 5.519531 9.585938 L 5.800781 9.585938 Z M 5.800781 10.621094 "/>
<path style=" stroke:none;fill-rule:nonzero;fill:rgb(0%,0%,0%);fill-opacity:1;" d="M 7.097656 10.910156 C 7 10.910156 6.910156 10.890625 6.824219 10.859375 C 6.742188 10.824219 6.667969 10.777344 6.605469 10.714844 C 6.542969 10.65625 6.496094 10.582031 6.460938 10.5 C 6.425781 10.417969 6.410156 10.328125 6.410156 10.234375 C 6.410156 10.136719 6.425781 10.046875 6.460938 9.964844 C 6.496094 9.882812 6.542969 9.8125 6.605469 9.75 C 6.667969 9.691406 6.742188 9.644531 6.824219 9.609375 C 6.910156 9.574219 7 9.558594 7.097656 9.558594 C 7.199219 9.558594 7.289062 9.574219 7.371094 9.609375 C 7.457031 9.644531 7.53125 9.691406 7.589844 9.75 C 7.652344 9.8125 7.699219 9.882812 7.734375 9.964844 C 7.769531 10.046875 7.789062 10.136719 7.789062 10.234375 C 7.789062 10.328125 7.769531 10.417969 7.734375 10.5 C 7.699219 10.582031 7.652344 10.65625 7.589844 10.714844 C 7.53125 10.777344 7.457031 10.824219 7.371094 10.859375 C 7.289062 10.890625 7.199219 10.910156 7.097656 10.910156 Z M 7.097656 10.644531 C 7.175781 10.644531 7.246094 10.625 7.308594 10.589844 C 7.367188 10.554688 7.417969 10.503906 7.453125 10.445312 C 7.488281 10.382812 7.503906 10.3125 7.503906 10.234375 C 7.503906 10.15625 7.488281 10.085938 7.453125 10.023438 C 7.417969 9.960938 7.367188 9.914062 7.308594 9.878906 C 7.246094 9.839844 7.175781 9.824219 7.097656 9.824219 C 7.023438 9.824219 6.953125 9.839844 6.890625 9.878906 C 6.832031 9.914062 6.78125 9.960938 6.746094 10.023438 C 6.710938 10.085938 6.691406 10.15625 6.691406 10.234375 C 6.691406 10.3125 6.710938 10.382812 6.746094 10.441406 C 6.78125 10.503906 6.832031 10.554688 6.890625 10.589844 C 6.953125 10.625 7.023438 10.644531 7.097656 10.644531 Z M 7.097656 10.644531 "/>
<path style=" stroke:none;fill-rule:nonzero;fill:rgb(0%,0%,0%);fill-opacity:1;" d="M 8.574219 10.203125 L 9.265625 10.203125 C 9.261719 10.304688 9.246094 10.398438 9.214844 10.484375 C 9.183594 10.570312 9.136719 10.644531 9.078125 10.710938 C 9.019531 10.773438 8.949219 10.820312 8.871094 10.855469 C 8.789062 10.890625 8.699219 10.910156 8.601562 10.910156 C 8.507812 10.910156 8.417969 10.890625 8.335938 10.859375 C 8.257812 10.824219 8.183594 10.777344 8.125 10.71875 C 8.0625 10.65625 8.015625 10.585938 7.984375 10.503906 C 7.949219 10.421875 7.933594 10.332031 7.933594 10.234375 C 7.933594 10.136719 7.949219 10.046875 7.980469 9.964844 C 8.015625 9.882812 8.0625 9.8125 8.121094 9.75 C 8.179688 9.691406 8.25 9.644531 8.332031 9.609375 C 8.414062 9.574219 8.5 9.558594 8.597656 9.558594 C 8.703125 9.558594 8.804688 9.578125 8.894531 9.621094 C 8.984375 9.664062 9.0625 9.722656 9.125 9.796875 C 9.183594 9.871094 9.226562 9.957031 9.246094 10.050781 L 8.957031 10.050781 C 8.929688 9.980469 8.882812 9.925781 8.820312 9.886719 C 8.757812 9.84375 8.683594 9.824219 8.601562 9.824219 C 8.527344 9.824219 8.457031 9.84375 8.402344 9.878906 C 8.34375 9.914062 8.296875 9.960938 8.265625 10.023438 C 8.230469 10.082031 8.214844 10.152344 8.214844 10.234375 C 8.214844 10.316406 8.230469 10.386719 8.265625 10.445312 C 8.296875 10.507812 8.339844 10.554688 8.398438 10.589844 C 8.457031 10.625 8.523438 10.640625 8.601562 10.640625 C 8.6875 10.640625 8.761719 10.621094 8.828125 10.582031 C 8.894531 10.539062 8.9375 10.488281 8.960938 10.421875 L 8.574219 10.421875 Z M 8.574219 10.203125 "/>
<path style=" stroke:none;fill-rule:nonzero;fill:rgb(0%,0%,0%);fill-opacity:1;" d="M 10 10.910156 C 9.898438 10.910156 9.808594 10.886719 9.726562 10.84375 C 9.648438 10.800781 9.585938 10.738281 9.539062 10.660156 C 9.492188 10.585938 9.46875 10.496094 9.46875 10.394531 L 9.46875 9.585938 L 9.75 9.585938 L 9.75 10.382812 C 9.75 10.460938 9.773438 10.527344 9.820312 10.574219 C 9.867188 10.621094 9.925781 10.644531 10 10.644531 C 10.078125 10.644531 10.136719 10.621094 10.183594 10.574219 C 10.234375 10.527344 10.257812 10.460938 10.257812 10.382812 L 10.257812 9.585938 L 10.535156 9.585938 L 10.535156 10.394531 C 10.535156 10.496094 10.511719 10.585938 10.464844 10.660156 C 10.421875 10.738281 10.355469 10.800781 10.277344 10.84375 C 10.195312 10.886719 10.105469 10.910156 10 10.910156 Z M 10 10.910156 "/>
<path style=" stroke:none;fill-rule:nonzero;fill:rgb(0%,0%,0%);fill-opacity:1;" d="M 11.097656 10.621094 L 11.617188 10.621094 L 11.617188 10.878906 L 10.820312 10.878906 L 10.820312 9.585938 L 11.59375 9.585938 L 11.59375 9.84375 L 11.097656 9.84375 L 11.097656 10.101562 L 11.546875 10.101562 L 11.546875 10.355469 L 11.097656 10.355469 Z M 11.097656 10.621094 "/>
<path style=" stroke:none;fill-rule:nonzero;fill:rgb(98.823529%,3.921569%,47.843137%);fill-opacity:1;" d="M 12.902344 10.941406 L 12.796875 10.65625 L 12.199219 10.65625 L 12.097656 10.941406 L 11.753906 10.941406 L 12.339844 9.4375 L 12.648438 9.4375 L 13.257812 10.941406 Z M 12.496094 9.835938 L 12.300781 10.371094 L 12.695312 10.371094 Z M 12.496094 9.835938 "/>
<path style=" stroke:none;fill-rule:nonzero;fill:rgb(98.823529%,3.921569%,47.843137%);fill-opacity:1;" d="M 13.445312 10.941406 L 13.445312 9.4375 L 13.773438 9.4375 L 13.773438 10.941406 Z M 13.445312 10.941406 "/>
</g>
</svg>
