<?xml version="1.0" standalone="no"?>
<!DOCTYPE svg PUBLIC "-//W3C//DTD SVG 20010904//EN"
 "http://www.w3.org/TR/2001/REC-SVG-20010904/DTD/svg10.dtd">
<svg version="1.0" xmlns="http://www.w3.org/2000/svg"
 width="900.000000pt" height="900.000000pt" viewBox="0 0 900.000000 900.000000"
 preserveAspectRatio="xMidYMid meet">
<metadata>
Created by potrace 1.10, written by Peter Selinger 2001-2011
</metadata>
<g transform="translate(0.000000,900.000000) scale(0.100000,-0.100000)"
fill="#000000" stroke="none">
<path d="M2155 6570 c-3 -5 -19 -10 -35 -10 -49 0 -169 -69 -246 -142 -76 -73
-136 -173 -150 -253 -3 -22 -11 -45 -15 -51 -14 -17 -5 -1087 8 -1149 17 -74
51 -144 108 -220 52 -70 95 -104 195 -155 l65 -34 177 -4 177 -4 103 -104 c57
-57 129 -133 162 -169 32 -36 66 -65 75 -65 9 0 72 57 140 127 67 71 141 147
164 171 l41 42 537 0 c474 0 543 2 590 17 30 9 61 22 70 30 8 7 22 13 31 13
20 0 198 178 198 198 0 8 6 23 13 31 23 27 47 99 47 142 0 22 7 53 15 70 13
25 15 65 10 262 -12 539 -5 768 26 834 24 50 110 131 148 139 14 3 35 10 46
15 27 13 1919 6 1963 -6 50 -15 124 -86 160 -153 l32 -60 0 -525 c0 -295 -4
-528 -9 -531 -5 -3 -12 -21 -15 -39 -4 -22 -23 -49 -59 -83 -88 -84 -88 -84
-312 -84 l-197 0 -64 -62 c-35 -33 -64 -65 -64 -69 0 -17 -71 -79 -90 -79 -11
0 -37 19 -58 42 -20 22 -64 70 -98 105 l-61 63 -545 0 -545 0 -21 -23 c-12
-13 -22 -31 -22 -41 0 -10 -14 -38 -30 -63 -16 -24 -30 -47 -30 -50 0 -3 -13
-22 -30 -43 -16 -20 -27 -40 -23 -44 3 -3 257 -6 563 -6 l557 0 55 -57 c228
-238 274 -283 288 -283 14 0 65 49 282 277 l59 61 179 4 c126 2 183 7 192 16
6 6 22 12 34 12 13 0 26 5 29 10 4 6 24 19 45 30 45 23 127 102 168 162 16 24
39 70 52 103 12 33 27 69 32 80 5 11 7 273 5 595 -3 627 -5 651 -61 724 -14
19 -26 37 -26 40 0 14 -64 98 -83 108 -12 6 -47 30 -77 53 -59 44 -129 75
-172 75 -15 0 -30 5 -33 10 -9 15 -1987 14 -2034 -1 -78 -25 -180 -72 -185
-85 -3 -8 -13 -14 -23 -14 -19 0 -123 -106 -123 -126 0 -7 -6 -17 -13 -21 -7
-4 -27 -41 -45 -82 l-32 -74 0 -531 c-1 -451 -3 -534 -15 -550 -8 -11 -15 -36
-15 -56 0 -20 -7 -45 -15 -56 -8 -10 -15 -25 -15 -33 0 -17 -74 -91 -91 -91
-8 0 -23 -7 -33 -15 -17 -13 -105 -15 -598 -15 -516 0 -581 -2 -603 -16 -14
-9 -25 -21 -25 -26 0 -12 -170 -178 -182 -178 -5 0 -19 12 -31 27 -12 15 -58
64 -103 110 l-80 83 -194 0 c-172 0 -198 2 -234 20 -62 29 -133 107 -148 160
-9 34 -12 173 -12 560 -1 588 -2 574 83 658 68 66 76 72 97 72 11 0 24 4 30
10 6 6 348 11 963 12 l953 3 24 40 c13 22 28 51 34 64 6 13 21 38 33 55 30 41
47 75 47 92 0 12 -160 14 -1039 14 -683 0 -1042 -3 -1046 -10z"/>
<path d="M2576 5657 c-31 -26 -39 -40 -43 -78 -7 -61 11 -112 50 -145 28 -24
37 -26 105 -22 81 4 90 10 134 95 21 42 21 43 3 85 -10 24 -30 55 -44 71 -23
25 -31 27 -96 27 -66 0 -74 -2 -109 -33z"/>
<path d="M3026 5657 c-31 -26 -39 -40 -43 -78 -7 -61 11 -112 50 -145 28 -24
37 -26 105 -22 82 4 94 12 132 96 18 40 18 46 5 72 -8 16 -15 36 -15 44 0 8
-14 26 -31 40 -26 22 -40 26 -98 26 -62 0 -71 -3 -105 -33z"/>
<path d="M3471 5656 c-58 -60 -53 -168 12 -222 28 -24 37 -26 104 -22 67 3 76
6 98 33 13 17 24 37 25 45 0 8 6 27 14 42 12 23 12 29 0 39 -8 6 -14 21 -14
33 0 13 -15 36 -36 54 -33 29 -42 32 -103 32 -63 0 -69 -2 -100 -34z"/>
<path d="M5303 5654 c-31 -32 -33 -40 -33 -102 0 -65 1 -69 38 -105 36 -35 42
-37 101 -37 60 0 65 2 102 39 37 37 39 42 39 103 0 61 -2 66 -38 101 -37 36
-40 37 -107 36 -66 -1 -72 -3 -102 -35z"/>
<path d="M5753 5654 c-31 -32 -33 -40 -33 -102 0 -65 1 -69 38 -105 36 -35 42
-37 101 -37 60 0 65 2 102 39 37 36 39 42 39 100 0 56 -3 64 -36 101 -36 40
-37 40 -108 39 -67 -1 -73 -3 -103 -35z"/>
<path d="M6203 5654 c-31 -32 -33 -40 -33 -102 0 -65 1 -69 38 -105 35 -34 42
-37 99 -37 70 0 106 22 129 76 29 68 12 141 -42 183 -21 17 -40 21 -93 20 -62
-1 -68 -3 -98 -35z"/>
<path d="M6911 3644 c-12 -19 -21 -43 -21 -53 0 -9 -4 -21 -9 -26 -14 -16 -81
-191 -81 -213 0 -11 -6 -25 -14 -31 -8 -7 -18 -25 -21 -41 -4 -16 -15 -47 -26
-69 -10 -22 -19 -46 -19 -53 0 -7 -9 -26 -20 -43 -11 -16 -20 -40 -20 -51 0
-12 -7 -27 -15 -34 -8 -7 -15 -24 -15 -39 0 -14 -7 -35 -15 -45 -8 -11 -15
-29 -15 -40 0 -11 -7 -28 -16 -38 -24 -25 -7 -29 107 -26 l94 3 16 45 c8 25
21 57 29 73 l13 27 164 0 c153 0 163 -1 163 -19 0 -10 11 -44 25 -75 l25 -56
105 0 c106 0 114 3 96 38 -5 9 -23 51 -39 92 -78 195 -154 378 -167 403 -8 16
-15 36 -15 45 0 9 -7 26 -15 36 -8 11 -15 28 -15 37 0 10 -7 30 -15 46 -8 15
-25 54 -39 86 l-25 57 -89 0 -90 0 -21 -36z m129 -251 c0 -20 37 -123 50 -138
5 -6 10 -28 12 -50 l3 -40 -79 -3 c-44 -2 -83 1 -89 7 -10 10 4 63 29 114 8
16 14 35 14 42 0 19 40 85 51 85 5 0 9 -8 9 -17z"/>
<path d="M7550 3260 l0 -421 98 3 97 3 0 415 0 415 -97 3 -98 3 0 -421z"/>
<path d="M3945 3613 c-194 -39 -290 -120 -338 -287 -40 -142 14 -303 130 -387
73 -52 92 -61 173 -75 126 -23 239 6 329 83 200 170 163 502 -68 621 -60 31
-180 55 -226 45z m105 -160 c167 -54 215 -260 89 -384 -58 -57 -128 -77 -205
-58 -27 6 -56 18 -65 25 -8 8 -20 14 -25 14 -5 0 -23 20 -41 43 -36 49 -49
110 -38 192 6 48 13 61 53 103 45 45 112 80 158 81 12 1 45 -7 74 -16z"/>
<path d="M4746 3603 c-121 -25 -222 -109 -265 -219 -16 -43 -21 -78 -21 -155
0 -89 3 -105 30 -161 53 -113 151 -186 275 -206 207 -32 383 89 425 295 20 97
29 93 -185 93 l-186 0 3 -57 3 -58 98 -3 c112 -3 121 -12 62 -68 -56 -52 -143
-69 -232 -45 -114 31 -177 191 -122 311 27 60 55 88 109 112 93 41 182 19 263
-64 31 -32 53 -48 63 -44 9 3 38 6 65 6 46 0 49 2 49 26 0 33 -62 126 -108
162 -93 73 -208 100 -326 75z"/>
<path d="M2043 3593 c-10 -4 -13 -86 -13 -364 l0 -360 73 3 72 3 3 356 2 357
-22 6 c-27 7 -98 7 -115 -1z"/>
<path d="M2571 3588 c-12 -4 -24 -16 -27 -25 -9 -28 -59 -160 -83 -218 -5 -11
-15 -38 -24 -60 -8 -22 -29 -76 -47 -120 -18 -44 -38 -96 -45 -115 -7 -19 -25
-64 -39 -99 -16 -37 -23 -68 -18 -73 5 -5 42 -8 82 -6 l73 3 22 59 c12 32 29
63 38 68 9 5 74 7 144 6 l128 -3 19 -40 c10 -22 24 -51 30 -65 11 -23 18 -25
89 -28 71 -3 77 -1 77 17 0 11 -6 35 -14 53 -8 18 -35 84 -60 146 -25 61 -67
163 -92 225 -25 61 -60 146 -77 187 -17 41 -33 78 -36 81 -10 11 -116 16 -140
7z m96 -263 c8 -22 17 -51 20 -65 4 -14 12 -35 20 -47 8 -12 13 -32 11 -45 -3
-21 -8 -23 -81 -26 -56 -2 -79 1 -82 10 -3 7 4 38 16 68 11 30 24 70 29 88 9
37 28 64 43 59 5 -1 16 -21 24 -42z"/>
<path d="M3112 3592 c-10 -7 -13 -84 -13 -357 0 -191 4 -352 9 -357 5 -5 100
-7 213 -6 l204 3 0 70 0 70 -132 3 -133 3 0 280 0 279 -26 10 c-31 12 -104 13
-122 2z"/>
<path d="M5337 3591 c-6 -2 -14 -7 -17 -12 -8 -11 -4 -460 4 -504 34 -182 254
-274 441 -185 53 25 99 74 127 135 21 47 23 65 26 299 3 160 0 252 -6 258 -10
10 -139 15 -148 6 -2 -2 -5 -115 -6 -250 -3 -282 -5 -286 -91 -322 -41 -17
-51 -18 -88 -7 -23 7 -54 27 -70 44 l-29 31 -2 251 -3 250 -63 5 c-34 3 -68 3
-75 1z"/>
<path d="M6093 3593 c-10 -4 -13 -86 -13 -364 l0 -359 223 2 222 3 3 61 c2 42
-1 64 -11 72 -8 7 -67 13 -148 14 l-134 3 -3 58 c-4 84 0 87 127 87 70 0 111
4 119 12 15 15 16 82 2 109 -10 17 -22 19 -118 19 -71 0 -112 4 -120 12 -7 7
-12 33 -12 58 0 25 5 51 12 58 8 8 52 12 134 12 102 0 123 3 128 16 10 27 6
110 -6 122 -9 9 -67 12 -202 11 -105 0 -197 -3 -203 -6z"/>
<path d="M1255 3577 c-3 -6 -4 -167 -3 -357 l3 -345 169 -3 c137 -2 179 1 220
14 125 41 214 135 242 253 43 182 -36 351 -200 427 -48 22 -63 24 -239 24
-141 0 -189 -3 -192 -13z m385 -161 c66 -43 90 -92 90 -180 0 -104 -27 -151
-113 -197 -31 -16 -53 -19 -120 -17 l-82 3 -3 199 c-2 147 1 202 10 213 10 13
29 14 96 10 67 -4 90 -10 122 -31z"/>
</g>
</svg>
